<?xml version="1.0" encoding="UTF-8" standalone="no"?>
<!-- Created with PhotoLine 23.01 (www.pl32.de) -->
<!DOCTYPE svg PUBLIC "-//W3C//DTD SVG 1.1//EN" "http://www.w3.org/Graphics/SVG/1.1/DTD/svg11.dtd">
<svg width="1161" height="394" viewBox="0 0 1161 394" version="1.1" xmlns="http://www.w3.org/2000/svg" xmlns:xlink="http://www.w3.org/1999/xlink">
  <defs>
    <linearGradient id="grad0" x1="320.62" y1="393.07" x2="0.05" y2="0.93" gradientUnits="userSpaceOnUse" gradientTransform="matrix(4.64 0 0 4.64 1.27 -2.79)">
      <stop offset="0" stop-color="#0a3600"/>
      <stop offset="1" stop-color="#125c00"/>
    </linearGradient>
    <clipPath id="clip0" transform="matrix(0.228369 0 0 0.228369 64.144577 392.774322)">
      <path clip-rule="evenodd" d="M745.5 1.5 L752 1.5 L780 16 C798.67 25.67 811 32 817 35 C823 38 843.42 47.75 878.25 64.25 C913.08 80.75 931.08 89.08 932.25 89.25 C933.42 89.42 942.67 93.33 960 101 C977.33 108.67 990.67 114.33 1000 118 C1009.33 121.67 1022.83 126.67 1040.5 133 C1058.17 139.33 1069.33 143.33 1074 145 C1078.67 146.67 1084.5 148.67 1091.5 151 C1098.5 153.33 1107.5 156.17 1118.5 159.5 C1129.5 162.83 1143.5 166.83 1160.5 171.5 C1177.5 176.17 1194 180.33 1210 184 C1226 187.67 1236.33 190 1241 191 C1245.67 192 1260.5 194.83 1285.5 199.5 C1310.5 204.17 1326.17 207 1332.5 208 C1338.83 209 1354.33 211.5 1379 215.5 C1403.67 219.5 1416.17 221.5 1416.5 221.5 C1416.83 221.5 1428.83 223.83 1452.5 228.5 C1476.17 233.17 1488.08 235.58 1488.25 235.75 L1488.5 236 L1487 310.5 C1486 360.17 1483.5 424.33 1479.5 503 C1475.5 581.67 1472.33 636.67 1470 668 C1467.67 699.33 1465 726.17 1462 748.5 C1459 770.83 1455.5 792 1451.5 812 C1447.5 832 1443.17 852.17 1438.5 872.5 C1433.83 892.83 1429.67 910.67 1426 926 C1422.33 941.33 1418 957.83 1413 975.5 C1408 993.17 1405 1003.83 1404 1007.5 C1403 1011.17 1401.5 1015.83 1399.5 1021.5 C1397.5 1027.17 1395.17 1034.17 1392.5 1042.5 C1389.83 1050.83 1385.67 1062.83 1380 1078.5 C1374.33 1094.17 1369.67 1106.67 1366 1116 C1362.33 1125.33 1357.83 1136.5 1352.5 1149.5 C1347.17 1162.5 1340.33 1178.17 1332 1196.5 C1323.67 1214.83 1318.67 1225.5 1317 1228.5 C1315.33 1231.5 1309.25 1242.42 1298.75 1261.25 C1288.25 1280.08 1281.92 1291.25 1279.75 1294.75 C1277.58 1298.25 1272.42 1307.08 1264.25 1321.25 C1256.08 1335.42 1250.75 1344.42 1248.25 1348.25 C1245.75 1352.08 1241.92 1358.08 1236.75 1366.25 C1231.58 1374.42 1227.42 1380.75 1224.25 1385.25 C1221.08 1389.75 1217.42 1395.08 1213.25 1401.25 C1209.08 1407.42 1205.08 1413.08 1201.25 1418.25 C1197.42 1423.42 1194.42 1427.75 1192.25 1431.25 C1190.08 1434.75 1186.92 1439.25 1182.75 1444.75 C1178.58 1450.25 1174.58 1455.75 1170.75 1461.25 C1166.92 1466.75 1162.75 1472.42 1158.25 1478.25 C1153.75 1484.08 1149.92 1489.08 1146.75 1493.25 C1143.58 1497.42 1136.83 1505.33 1126.5 1517 C1116.17 1528.67 1104 1542 1090 1557 C1076 1572 1063.67 1584.83 1053 1595.5 C1042.33 1606.17 1035.25 1612.92 1031.75 1615.75 C1028.25 1618.58 1020.08 1625.75 1007.25 1637.25 C994.42 1648.75 986.58 1655.75 983.75 1658.25 C980.92 1660.75 973.92 1666.92 962.75 1676.75 C951.58 1686.58 944.25 1692.92 940.75 1695.75 C937.25 1698.58 933.25 1701.92 928.75 1705.75 C924.25 1709.58 918 1714.83 910 1721.5 C902 1728.17 895.92 1733.08 891.75 1736.25 C887.58 1739.42 883.58 1742.25 879.75 1744.75 C875.92 1747.25 868.92 1751.58 858.75 1757.75 C848.58 1763.92 841.92 1768.08 838.75 1770.25 C835.58 1772.42 832 1774.67 828 1777 C824 1779.33 819.83 1782 815.5 1785 C811.17 1788 808 1790.17 806 1791.5 C804 1792.83 799.67 1795.17 793 1798.5 C786.33 1801.83 778.33 1805.67 769 1810 C759.67 1814.33 753.17 1817.17 749.5 1818.5 L744 1820.5 L738 1819 C734 1818 729.67 1816.33 725 1814 C720.33 1811.67 712.5 1807.67 701.5 1802 C690.5 1796.33 684.17 1792.83 682.5 1791.5 C680.83 1790.17 676.58 1787.25 669.75 1782.75 C662.92 1778.25 657.75 1774.92 654.25 1772.75 C650.75 1770.58 643.92 1766.42 633.75 1760.25 C623.58 1754.08 616.58 1749.75 612.75 1747.25 C608.92 1744.75 604.92 1741.92 600.75 1738.75 C596.58 1735.58 591.83 1731.83 586.5 1727.5 C581.17 1723.17 574.08 1717.25 565.25 1709.75 C556.42 1702.25 548.75 1695.75 542.25 1690.25 C535.75 1684.75 526.25 1676.42 513.75 1665.25 C501.25 1654.08 493.25 1647.08 489.75 1644.25 C486.25 1641.42 478.58 1634.75 466.75 1624.25 C454.92 1613.75 448.33 1607.83 447 1606.5 C445.67 1605.17 439.75 1599.25 429.25 1588.75 C418.75 1578.25 411.42 1570.75 407.25 1566.25 C403.08 1561.75 393.92 1551.75 379.75 1536.25 C365.58 1520.75 357.08 1511.25 354.25 1507.75 C351.42 1504.25 347.25 1499.08 341.75 1492.25 C336.25 1485.42 331.92 1479.92 328.75 1475.75 C325.58 1471.58 322.42 1467.25 319.25 1462.75 C316.08 1458.25 312.75 1453.58 309.25 1448.75 C305.75 1443.92 302.58 1439.58 299.75 1435.75 C296.92 1431.92 294.5 1428.5 292.5 1425.5 C290.5 1422.5 287.75 1418.58 284.25 1413.75 C280.75 1408.92 277.75 1404.58 275.25 1400.75 C272.75 1396.92 269.42 1391.92 265.25 1385.75 C261.08 1379.58 257.92 1374.75 255.75 1371.25 C253.58 1367.75 250.08 1362.25 245.25 1354.75 C240.42 1347.25 237.25 1342.08 235.75 1339.25 C234.25 1336.42 230.08 1329.25 223.25 1317.75 C216.42 1306.25 211.92 1298.75 209.75 1295.25 C207.58 1291.75 202.17 1282.17 193.5 1266.5 C184.83 1250.83 178.33 1239 174 1231 C169.67 1223 165.83 1215.5 162.5 1208.5 C159.17 1201.5 154.5 1191 148.5 1177 C142.5 1163 139.5 1155.83 139.5 1155.5 C139.5 1155.17 136.5 1147.5 130.5 1132.5 C124.5 1117.5 119.83 1105.67 116.5 1097 C113.17 1088.33 108.5 1075.17 102.5 1057.5 C96.5 1039.83 90.5 1021 84.5 1001 C78.5 981 71.83 956.67 64.5 928 C57.17 899.33 52 878 49 864 C46 850 41.83 829.67 36.5 803 C31.17 776.33 28 758.83 27 750.5 C26 742.17 23.83 716.67 20.5 674 C17.17 631.33 15 599.17 14 577.5 C13 555.83 11.83 532.83 10.5 508.5 C9.17 484.17 7.33 444.33 5 389 C2.67 333.67 1.5 294.5 1.5 271.5 L1.5 237 L4.75 235.25 C6.92 234.08 12.83 232.67 22.5 231 C32.17 229.33 45.5 227.17 62.5 224.5 C79.5 221.83 105.33 217.5 140 211.5 C174.67 205.5 199.5 201.17 214.5 198.5 C229.5 195.83 249.33 191.67 274 186 C298.67 180.33 320 175 338 170 C356 165 371.5 160.33 384.5 156 C397.5 151.67 407.67 148.33 415 146 C422.33 143.67 429.33 141.33 436 139 C442.67 136.67 456 131.67 476 124 C496 116.33 514.75 108.58 532.25 100.75 C549.75 92.92 559.08 88.92 560.25 88.75 C561.42 88.58 569.83 84.83 585.5 77.5 C601.17 70.17 615.33 63.5 628 57.5 C640.67 51.5 653.17 45.5 665.5 39.5 C677.83 33.5 693.17 25.67 711.5 16 L739 1.5 Z"/>
    </clipPath>
  </defs>
  <g transform="matrix(1 0 0 1 -59 -83)">
    <g transform="matrix(1 0 0 1 463.816772 138.283325)">
      <text kerning="0" font-family="STIXGeneral" font-weight="700" font-size="283.33" fill="#ffffff">
        <tspan x="0" y="212.5">yn</tspan>
        <tspan x="291.55" y="212.5">v</tspan>
        <tspan x="426.7" y="212.5">e</tspan>
        <tspan x="552.5" y="212.5">s</tspan>
        <tspan x="660.73" y="212.5">t</tspan>
      </text>
    </g>
    <g id="Icon" transform="matrix(1.097851 0 0 1.097851 -34.804271 -49.355346)">
      <g transform="matrix(0.19637 0 0 0.19637 85.194412 121.106826)">
        <path fill="url(#grad0)" fill-rule="evenodd" d="M745.5 1.5 L752 1.5 L780 16 C798.67 25.67 811 32 817 35 C823 38 843.42 47.75 878.25 64.25 C913.08 80.75 931.08 89.08 932.25 89.25 C933.42 89.42 942.67 93.33 960 101 C977.33 108.67 990.67 114.33 1000 118 C1009.33 121.67 1022.83 126.67 1040.5 133 C1058.17 139.33 1069.33 143.33 1074 145 C1078.67 146.67 1084.5 148.67 1091.5 151 C1098.5 153.33 1107.5 156.17 1118.5 159.5 C1129.5 162.83 1143.5 166.83 1160.5 171.5 C1177.5 176.17 1194 180.33 1210 184 C1226 187.67 1236.33 190 1241 191 C1245.67 192 1260.5 194.83 1285.5 199.5 C1310.5 204.17 1326.17 207 1332.5 208 C1338.83 209 1354.33 211.5 1379 215.5 C1403.67 219.5 1416.17 221.5 1416.5 221.5 C1416.83 221.5 1428.83 223.83 1452.5 228.5 C1476.17 233.17 1488.08 235.58 1488.25 235.75 L1488.5 236 L1487 310.5 C1486 360.17 1483.5 424.33 1479.5 503 C1475.5 581.67 1472.33 636.67 1470 668 C1467.67 699.33 1465 726.17 1462 748.5 C1459 770.83 1455.5 792 1451.5 812 C1447.5 832 1443.17 852.17 1438.5 872.5 C1433.83 892.83 1429.67 910.67 1426 926 C1422.33 941.33 1418 957.83 1413 975.5 C1408 993.17 1405 1003.83 1404 1007.5 C1403 1011.17 1401.5 1015.83 1399.5 1021.5 C1397.5 1027.17 1395.17 1034.17 1392.5 1042.5 C1389.83 1050.83 1385.67 1062.83 1380 1078.5 C1374.33 1094.17 1369.67 1106.67 1366 1116 C1362.33 1125.33 1357.83 1136.5 1352.5 1149.5 C1347.17 1162.5 1340.33 1178.17 1332 1196.5 C1323.67 1214.83 1318.67 1225.5 1317 1228.5 C1315.33 1231.5 1309.25 1242.42 1298.75 1261.25 C1288.25 1280.08 1281.92 1291.25 1279.75 1294.75 C1277.58 1298.25 1272.42 1307.08 1264.25 1321.25 C1256.08 1335.42 1250.75 1344.42 1248.25 1348.25 C1245.75 1352.08 1241.92 1358.08 1236.75 1366.25 C1231.58 1374.42 1227.42 1380.75 1224.25 1385.25 C1221.08 1389.75 1217.42 1395.08 1213.25 1401.25 C1209.08 1407.42 1205.08 1413.08 1201.25 1418.25 C1197.42 1423.42 1194.42 1427.75 1192.25 1431.25 C1190.08 1434.75 1186.92 1439.25 1182.75 1444.75 C1178.58 1450.25 1174.58 1455.75 1170.75 1461.25 C1166.92 1466.75 1162.75 1472.42 1158.25 1478.25 C1153.75 1484.08 1149.92 1489.08 1146.75 1493.25 C1143.58 1497.42 1136.83 1505.33 1126.5 1517 C1116.17 1528.67 1104 1542 1090 1557 C1076 1572 1063.67 1584.83 1053 1595.5 C1042.33 1606.17 1035.25 1612.92 1031.75 1615.75 C1028.25 1618.58 1020.08 1625.75 1007.25 1637.25 C994.42 1648.75 986.58 1655.75 983.75 1658.25 C980.92 1660.75 973.92 1666.92 962.75 1676.75 C951.58 1686.58 944.25 1692.92 940.75 1695.75 C937.25 1698.58 933.25 1701.92 928.75 1705.75 C924.25 1709.58 918 1714.83 910 1721.5 C902 1728.17 895.92 1733.08 891.75 1736.25 C887.58 1739.42 883.58 1742.25 879.75 1744.75 C875.92 1747.25 868.92 1751.58 858.75 1757.75 C848.58 1763.92 841.92 1768.08 838.75 1770.25 C835.58 1772.42 832 1774.67 828 1777 C824 1779.33 819.83 1782 815.5 1785 C811.17 1788 808 1790.17 806 1791.5 C804 1792.83 799.67 1795.17 793 1798.5 C786.33 1801.83 778.33 1805.67 769 1810 C759.67 1814.33 753.17 1817.17 749.5 1818.5 L744 1820.5 L738 1819 C734 1818 729.67 1816.33 725 1814 C720.33 1811.67 712.5 1807.67 701.5 1802 C690.5 1796.33 684.17 1792.83 682.5 1791.5 C680.83 1790.17 676.58 1787.25 669.75 1782.75 C662.92 1778.25 657.75 1774.92 654.25 1772.75 C650.75 1770.58 643.92 1766.42 633.75 1760.25 C623.58 1754.08 616.58 1749.75 612.75 1747.25 C608.92 1744.75 604.92 1741.92 600.75 1738.75 C596.58 1735.58 591.83 1731.83 586.5 1727.5 C581.17 1723.17 574.08 1717.25 565.25 1709.75 C556.42 1702.25 548.75 1695.75 542.25 1690.25 C535.75 1684.75 526.25 1676.42 513.75 1665.25 C501.25 1654.08 493.25 1647.08 489.75 1644.25 C486.25 1641.42 478.58 1634.75 466.75 1624.25 C454.92 1613.75 448.33 1607.83 447 1606.5 C445.67 1605.17 439.75 1599.25 429.25 1588.75 C418.75 1578.25 411.42 1570.75 407.25 1566.25 C403.08 1561.75 393.92 1551.75 379.75 1536.25 C365.58 1520.75 357.08 1511.25 354.25 1507.75 C351.42 1504.25 347.25 1499.08 341.75 1492.25 C336.25 1485.42 331.92 1479.92 328.75 1475.75 C325.58 1471.58 322.42 1467.25 319.25 1462.75 C316.08 1458.25 312.75 1453.58 309.25 1448.75 C305.75 1443.92 302.58 1439.58 299.75 1435.75 C296.92 1431.92 294.5 1428.5 292.5 1425.5 C290.5 1422.5 287.75 1418.58 284.25 1413.75 C280.75 1408.92 277.75 1404.58 275.25 1400.75 C272.75 1396.92 269.42 1391.92 265.25 1385.75 C261.08 1379.58 257.92 1374.75 255.75 1371.25 C253.58 1367.75 250.08 1362.25 245.25 1354.75 C240.42 1347.25 237.25 1342.08 235.75 1339.25 C234.25 1336.42 230.08 1329.25 223.25 1317.75 C216.42 1306.25 211.92 1298.75 209.75 1295.25 C207.58 1291.75 202.17 1282.17 193.5 1266.5 C184.83 1250.83 178.33 1239 174 1231 C169.67 1223 165.83 1215.5 162.5 1208.5 C159.17 1201.5 154.5 1191 148.5 1177 C142.5 1163 139.5 1155.83 139.5 1155.5 C139.5 1155.17 136.5 1147.5 130.5 1132.5 C124.5 1117.5 119.83 1105.67 116.5 1097 C113.17 1088.33 108.5 1075.17 102.5 1057.5 C96.5 1039.83 90.5 1021 84.5 1001 C78.5 981 71.83 956.67 64.5 928 C57.17 899.33 52 878 49 864 C46 850 41.83 829.67 36.5 803 C31.17 776.33 28 758.83 27 750.5 C26 742.17 23.83 716.67 20.5 674 C17.17 631.33 15 599.17 14 577.5 C13 555.83 11.83 532.83 10.5 508.5 C9.17 484.17 7.33 444.33 5 389 C2.67 333.67 1.5 294.5 1.5 271.5 L1.5 237 L4.75 235.25 C6.92 234.08 12.83 232.67 22.5 231 C32.17 229.33 45.5 227.17 62.5 224.5 C79.5 221.83 105.33 217.5 140 211.5 C174.67 205.5 199.5 201.17 214.5 198.5 C229.5 195.83 249.33 191.67 274 186 C298.67 180.33 320 175 338 170 C356 165 371.5 160.33 384.5 156 C397.5 151.67 407.67 148.33 415 146 C422.33 143.67 429.33 141.33 436 139 C442.67 136.67 456 131.67 476 124 C496 116.33 514.75 108.58 532.25 100.75 C549.75 92.92 559.08 88.92 560.25 88.75 C561.42 88.58 569.83 84.83 585.5 77.5 C601.17 70.17 615.33 63.5 628 57.5 C640.67 51.5 653.17 45.5 665.5 39.5 C677.83 33.5 693.17 25.67 711.5 16 L739 1.5 Z"/>
      </g>
      <g id="layer1" transform="matrix(0.805593 0 0 0.805593 42.756267 -184.015274)">
        <g clip-path="url(#clip0)">
          <g id="Swords" transform="matrix(0.407421 0 0 0.407421 137.819564 540.649658)">
            <path fill="#000000" fill-opacity="0.5" d="M682.28 -24.34 C681.83 -14.39 686.59 5.89 645.12 68.81 C598.81 139.11 527.39 197.51 457.37 244.8 C415.13 273.33 371.86 296.49 326.93 316.98 C315.23 313.51 300.84 308.94 284.75 303.23 C284.64 303.2 284.54 303.15 284.44 303.12 C295.59 298.07 307.65 292.44 320.86 286.04 C450.18 223.47 474.14 185.74 473.02 184.72 C471.9 183.7 439.38 218.14 327.9 277.16 C311.67 285.75 295.02 293.56 278.08 300.66 C265.53 295.94 253.22 290.79 242.71 285.95 C296.85 264.6 354.55 238.04 401.82 209.61 C474.58 165.88 543.07 114.64 597.39 57.09 C647.02 4.52 667.41 -22.54 670.54 -27.88 C675.46 -36.27 683.35 -47.82 682.27 -24.33 Z M649.29 33.5 C647.73 33.02 636.78 59.1 597.66 102.71 C558.63 146.23 523.6 172.39 525.17 173.81 C526.74 175.23 556.65 155.93 602.36 104.13 C643.48 57.52 650.86 33.97 649.29 33.5 Z M418.21 347.55 C418.21 347.55 418.8 354.92 400.53 361.06 C389.79 364.68 387.74 366.58 330.48 347.91 C313.22 342.28 219.25 317.84 142.98 277.16 C32.34 218.14 0.83 183.35 -1.05 184.72 C-2.93 186.09 21.61 223.47 149.96 286.04 C251.54 335.56 287 341.15 328.92 354.65 C380.32 371.22 385.59 371.57 392.59 379.19 C400.21 387.5 397.24 405.5 397.24 405.5 C397.24 405.5 304.02 381.42 234.19 354.65 C156.17 324.76 83.95 292.09 14.46 244.79 C-55.03 197.51 -125.91 139.1 -171.88 68.8 C-213.03 5.87 -208.31 -14.4 -208.76 -24.35 C-209.83 -47.84 -202 -36.29 -197.11 -27.9 C-194.01 -22.57 -173.77 4.5 -124.52 57.07 C-70.6 114.62 -2.62 165.86 69.59 209.59 C135.87 249.73 208.09 278.96 277.74 304.71 C354.82 333.23 418.2 347.54 418.2 347.54 Z M-116.44 367.1 C-99.99 367.1 -89.84 378.83 -89.84 393.05 C-89.84 416.89 -113.19 415.63 -113.69 419.72 C-114.2 423.82 -106.88 426.71 -95.31 425.05 C-87.46 423.93 -80.32 412.99 -77.32 416.17 C-74.32 419.35 -93.71 441.05 -112.13 441.05 C-132.08 441.05 -151.25 425.42 -151.25 403.01 C-151.25 377.41 -135.99 367.11 -116.44 367.11 Z M-74.19 366.75 C-60.58 366.75 -58.6 371.07 -54.63 382.74 C-50.94 393.67 -42.73 396.34 -40.94 396.26 C-39.16 396.17 -45.94 391.42 -49.55 382.39 C-52.68 374.57 -57.24 365.32 -39.77 365.32 C-22.94 365.32 -23.02 371.86 -20.61 377.77 C-16.69 387.37 -6.16 394.57 -4.57 394.48 C-2.98 394.39 -12.78 385.24 -15.13 377.05 C-16.93 370.78 -16.72 365.68 -6.92 365.68 C1.3 365.68 6.38 374.22 13.42 385.59 C19.57 395.52 25.83 418 13.82 419.01 C-3.96 420.49 -56.91 421.91 -64.02 417.95 C-76.59 410.92 -81.23 401.95 -84.75 388.79 C-89.04 372.79 -88.56 366.75 -74.19 366.75 Z M-13.56 340.79 C-15.52 342.93 -15.91 354.66 -31.17 354.66 C-46.42 354.66 -57.37 344.71 -57.37 326.93 C-57.37 309.16 -43.68 299.91 -25.3 299.91 C-6.92 299.91 7.95 307.38 22.42 322.66 C36.77 337.82 41.81 356.2 49.02 361.77 C59.46 369.84 73.68 367.74 74.68 369.56 C75.68 371.38 61.53 377.41 61.76 394.63 C61.95 409.57 63.1 425.77 68.19 433.6 C73.27 441.41 79.14 447.1 81.1 446.75 C83.05 446.39 83.43 434.31 95.96 434.31 C109.65 434.31 116.69 442.48 116.69 459.55 C116.69 476.61 101.82 481.24 82.66 481.24 C63.5 481.24 47.07 470.57 40.81 451.37 C34.55 432.17 28.68 406.21 20.86 387.37 C13.04 368.53 -0.65 347.56 -4.56 343.99 C-8.48 340.44 -11.6 338.66 -13.56 340.8 Z M73.44 361.51 C53.86 360.43 52.08 347.55 52.08 347.55 C52.08 347.55 89.9 337.42 142.47 320.94 C155.38 327.59 162.23 330.91 176.16 336.29 C156.83 342.21 144.81 346.19 138.98 347.91 C93.73 361.23 85.35 362.17 73.44 361.51 Z M227.82 357.27 C156.89 383.65 71.7 405.5 71.7 405.5 C71.7 405.5 68.72 387.51 76.39 379.2 C84.61 370.3 98.3 368.18 140.54 354.66 C156.28 349.63 169.25 345.69 186.96 340.17 C206.41 349.14 215.71 352.69 227.82 357.27 Z M373.17 434.3 C385.61 434.3 385.98 446.39 387.93 446.74 C389.86 447.1 395.69 441.41 400.74 433.6 C405.79 425.76 408.51 407.96 407.74 393.03 C406.96 378.1 397 374 397.75 371.27 C398.49 368.54 410.31 366.95 419.39 360.06 C429.06 352.73 431.93 337.82 446.16 322.66 C460.53 307.38 475.28 299.91 493.52 299.91 C511.77 299.91 525.36 309.16 525.36 326.93 C525.36 344.71 514.49 354.66 499.34 354.66 C484.21 354.66 483.82 342.93 481.87 340.79 C479.94 338.66 476.83 340.44 472.95 343.99 C469.07 347.55 455.48 368.53 447.71 387.37 C439.95 406.21 434.13 432.17 427.91 451.37 C421.71 470.57 405.4 481.23 386.37 481.23 C367.36 481.23 352.6 476.61 352.6 459.55 C352.6 442.47 359.59 434.3 373.17 434.3 Z M475.28 365.68 C485.01 365.68 485.22 370.78 483.43 377.05 C481.11 385.24 472.95 394.48 472.95 394.48 C472.95 394.48 484.98 387.37 488.88 377.77 C491.26 371.87 491.18 365.33 507.89 365.33 C525.24 365.33 520.7 374.57 517.6 382.39 C514.01 391.42 509.06 396.26 509.06 396.26 C509.06 396.26 518.96 393.67 522.64 382.74 C526.57 371.07 528.54 366.75 542.05 366.75 C556.31 366.75 556.78 372.79 552.54 388.79 C549.04 401.95 544.43 410.92 531.95 417.95 C524.9 421.91 472.34 420.5 454.71 419.01 C442.77 418.01 449 395.52 455.1 385.6 C462.08 374.22 467.13 365.68 475.28 365.68 Z M563.02 425.05 C574.6 425.93 581.64 422.8 581.26 419.72 C580.89 416.65 557.58 416.89 557.58 393.06 C557.58 378.84 567.66 367.11 583.98 367.11 C603.39 367.11 618.53 377.41 618.53 403.01 C618.53 425.42 599.5 441.51 579.71 441.06 C550.16 440.38 541.4 418.9 545.15 416.17 C548.91 413.44 552.6 424.28 563.02 425.05 Z"/>
          </g>
        </g>
        <g transform="matrix(6.561666 0 0 6.561665 14.798858 338.861816)">
          <path fill="#ffffff" d="M30.69 23.29 L30.69 21.07 L31.71 21.07 L31.71 23.15 C32.32 23.09 32.81 23.06 33.21 23.06 C33.55 23.06 34.09 23.09 34.81 23.15 L34.81 21.07 L35.83 21.07 L35.83 23.25 C38.01 23.58 39.63 24.29 40.69 25.39 C41.76 26.48 42.29 27.65 42.29 28.91 C42.29 29.71 42.06 30.33 41.6 30.79 C41.14 31.24 40.62 31.47 40.05 31.47 C39.47 31.47 38.98 31.25 38.57 30.82 C38.17 30.39 37.96 29.83 37.96 29.13 C37.96 28.14 38.42 27.44 39.34 27.03 C39.78 26.82 40 26.64 40 26.48 C40 26.24 39.65 25.87 38.96 25.37 C38.26 24.88 37.22 24.52 35.83 24.31 L35.83 35.5 C40.32 37.37 42.56 40.22 42.56 44.04 C42.56 45.76 42 47.39 40.88 48.93 C39.77 50.47 38.08 51.55 35.83 52.19 L35.83 57.06 L34.81 57.06 L34.81 52.46 C33.67 52.66 32.63 52.72 31.71 52.66 L31.71 57.06 L30.69 57.06 L30.69 52.55 C28.19 52.11 26.36 51.22 25.21 49.88 C24.06 48.54 23.49 47.15 23.49 45.73 C23.49 45.01 23.73 44.34 24.19 43.73 C24.66 43.12 25.27 42.81 26 42.81 C26.58 42.81 27.11 43.04 27.59 43.48 C28.07 43.93 28.31 44.5 28.31 45.19 C28.31 45.89 28.1 46.44 27.67 46.87 C27.24 47.29 26.74 47.5 26.19 47.5 C26.16 47.5 26.05 47.48 25.86 47.43 C25.67 47.39 25.56 47.37 25.53 47.37 C25.35 47.37 25.26 47.49 25.26 47.73 C25.26 48.17 25.73 48.82 26.66 49.7 C27.6 50.57 28.94 51.14 30.69 51.4 L30.69 38.08 C26.45 36.49 24.33 33.98 24.33 30.54 C24.33 26.85 26.45 24.44 30.69 23.29 Z M31.71 24.31 L31.71 33.87 C32.32 34.14 33.35 34.52 34.81 35.02 L34.81 24.27 L33.32 24.17 C33.09 24.17 32.78 24.2 32.39 24.24 C32 24.29 31.77 24.31 31.71 24.31 Z M30.69 33.37 L30.69 24.54 C28.07 25.38 26.75 26.87 26.75 29 C26.75 30.82 28.07 32.28 30.69 33.37 Z M34.81 51.31 L34.81 39.98 L31.71 38.65 L31.71 51.49 C32.01 51.52 32.28 51.53 32.5 51.53 C32.9 51.53 33.67 51.46 34.81 51.31 L34.81 51.31 Z M35.83 40.41 L35.83 50.99 C38.73 50.01 40.18 48.26 40.18 45.73 C40.18 43.38 38.73 41.61 35.83 40.41 Z"/>
        </g>
      </g>
    </g>
  </g>
</svg>
