<?xml version="1.0" encoding="UTF-8" standalone="no"?>
<!-- Created with PhotoLine 23.01 (www.pl32.de) -->
<!DOCTYPE svg PUBLIC "-//W3C//DTD SVG 1.1//EN" "http://www.w3.org/Graphics/SVG/1.1/DTD/svg11.dtd">
<svg width="500" height="250" viewBox="0 0 500 250" version="1.1" xmlns="http://www.w3.org/2000/svg" xmlns:xlink="http://www.w3.org/1999/xlink">
  <g transform="matrix(1.33777 0 0 1.33777 -60.286098 -42.052536)">
    <g transform="matrix(1 0 0 1 77.796905 65.531341)">
      <g transform="matrix(1 0 0 1 -26.62717 -0.356102)">
        <path fill="#ffffff" d="M17.4 31.2 L-0.93 5.07 L14.67 5.07 L24 18.8 L33.27 5.07 L48.87 5.07 L30.47 31.2 L30.47 55.34 L17.4 55.34 Z M52.34 21.13 L64.4 21.13 L64.4 25.47 C66.05 23.47 67.71 22.12 69.4 21.43 C71.09 20.75 73.07 20.4 75.34 20.4 C77.74 20.4 79.79 20.79 81.5 21.57 C83.22 22.35 84.67 23.45 85.87 24.87 C86.85 26.02 87.52 27.31 87.87 28.73 C88.23 30.16 88.4 31.78 88.4 33.6 L88.4 55.34 L76.34 55.34 L76.34 38.07 C76.34 36.38 76.21 35.01 75.97 33.97 C75.73 32.92 75.29 32.09 74.67 31.47 C74.14 30.93 73.54 30.56 72.87 30.33 C72.2 30.11 71.49 30 70.74 30 C68.69 30 67.13 30.61 66.04 31.83 C64.95 33.06 64.4 34.8 64.4 37.07 L64.4 55.34 L52.34 55.34 Z M97.6 21.13 L97.6 14.8 C97.6 12.53 98.08 10.41 99.04 8.43 C99.99 6.46 101.28 4.73 102.91 3.27 C104.53 1.8 106.42 0.64 108.57 -0.2 C110.73 -1.04 113.01 -1.47 115.41 -1.47 C117.81 -1.47 120.08 -1.04 122.24 -0.2 C124.4 0.64 126.28 1.8 127.91 3.27 C129.53 4.73 130.82 6.46 131.77 8.43 C132.73 10.41 133.21 12.53 133.21 14.8 L133.21 55.34 L121.14 55.34 L121.14 14.8 C121.14 14 120.99 13.23 120.71 12.5 C120.42 11.77 120.02 11.11 119.51 10.53 C118.99 9.96 118.39 9.49 117.71 9.13 C117.02 8.78 116.25 8.6 115.41 8.6 C114.56 8.6 113.78 8.78 113.07 9.13 C112.36 9.49 111.76 9.94 111.27 10.5 C110.78 11.06 110.39 11.71 110.11 12.47 C109.82 13.22 109.67 14 109.67 14.8 L109.67 21.13 L116.61 21.13 L116.61 31.2 L109.67 31.2 L109.67 55.34 L97.6 55.34 L97.6 31.2 L93.27 31.2 L93.27 21.13 Z M152.67 38.14 C152.67 39.25 152.87 40.28 153.27 41.24 C153.67 42.19 154.22 43.02 154.91 43.74 C155.6 44.45 156.42 45 157.37 45.4 C158.33 45.8 159.36 46 160.47 46 C161.54 46 162.55 45.8 163.51 45.4 C164.46 45 165.29 44.45 165.97 43.74 C166.66 43.02 167.22 42.2 167.64 41.27 C168.06 40.34 168.27 39.34 168.27 38.27 C168.27 37.2 168.06 36.19 167.64 35.24 C167.22 34.28 166.66 33.45 165.97 32.73 C165.29 32.02 164.46 31.47 163.51 31.07 C162.55 30.67 161.54 30.47 160.47 30.47 C159.36 30.47 158.33 30.67 157.37 31.07 C156.42 31.47 155.6 32.02 154.91 32.73 C154.22 33.45 153.67 34.26 153.27 35.17 C152.87 36.08 152.67 37.07 152.67 38.14 Z M167.87 21.13 L180.01 21.13 L180.01 55.34 L167.87 55.34 L167.87 51.54 C165.3 54.78 161.81 56.4 157.41 56.4 C154.92 56.4 152.63 55.95 150.54 55.04 C148.45 54.12 146.63 52.85 145.07 51.2 C143.52 49.56 142.31 47.62 141.44 45.4 C140.57 43.18 140.14 40.76 140.14 38.14 C140.14 35.69 140.56 33.37 141.41 31.17 C142.25 28.97 143.43 27.05 144.94 25.4 C146.45 23.76 148.25 22.46 150.34 21.5 C152.43 20.55 154.74 20.07 157.27 20.07 C161.54 20.07 165.07 21.56 167.87 24.53 Z M201.68 31.2 L201.68 55.34 L189.61 55.34 L189.61 31.2 L185.61 31.2 L185.61 21.13 L189.61 21.13 L189.61 10.87 L201.68 10.87 L201.68 21.13 L208.54 21.13 L208.54 31.2 Z M225.14 21.13 L225.14 55.34 L213.08 55.34 L213.08 21.13 Z M212.28 8 C212.28 7.07 212.45 6.19 212.81 5.37 C213.17 4.54 213.66 3.82 214.28 3.2 C214.9 2.58 215.62 2.09 216.44 1.73 C217.27 1.38 218.14 1.2 219.08 1.2 C220.01 1.2 220.89 1.38 221.71 1.73 C222.53 2.09 223.26 2.58 223.88 3.2 C224.5 3.82 224.99 4.54 225.34 5.37 C225.7 6.19 225.88 7.07 225.88 8 C225.88 8.93 225.7 9.81 225.34 10.63 C224.99 11.46 224.5 12.18 223.88 12.8 C223.26 13.42 222.53 13.91 221.71 14.27 C220.89 14.62 220.01 14.8 219.08 14.8 C218.14 14.8 217.27 14.62 216.44 14.27 C215.62 13.91 214.9 13.42 214.28 12.8 C213.66 12.18 213.17 11.46 212.81 10.63 C212.45 9.81 212.28 8.93 212.28 8 Z M244.81 38.07 C244.81 39.22 245.02 40.28 245.45 41.24 C245.87 42.19 246.42 43.02 247.11 43.74 C247.8 44.45 248.62 45 249.58 45.4 C250.53 45.8 251.55 46 252.61 46 C253.68 46 254.69 45.8 255.65 45.4 C256.6 45 257.42 44.45 258.11 43.74 C258.8 43.02 259.36 42.19 259.78 41.24 C260.2 40.28 260.41 39.25 260.41 38.14 C260.41 37.07 260.2 36.06 259.78 35.1 C259.36 34.15 258.8 33.31 258.11 32.6 C257.42 31.89 256.6 31.33 255.65 30.93 C254.69 30.53 253.68 30.33 252.61 30.33 C251.55 30.33 250.53 30.53 249.58 30.93 C248.62 31.33 247.8 31.89 247.11 32.6 C246.42 33.31 245.87 34.13 245.45 35.07 C245.02 36 244.81 37 244.81 38.07 Z M232.08 37.94 C232.08 35.4 232.59 33.03 233.61 30.83 C234.63 28.63 236.06 26.72 237.88 25.1 C239.7 23.48 241.87 22.2 244.38 21.27 C246.89 20.33 249.63 19.87 252.61 19.87 C255.55 19.87 258.27 20.32 260.78 21.23 C263.29 22.15 265.47 23.41 267.31 25.03 C269.16 26.66 270.59 28.59 271.61 30.83 C272.64 33.08 273.15 35.56 273.15 38.27 C273.15 40.98 272.62 43.46 271.58 45.7 C270.54 47.95 269.1 49.88 267.28 51.5 C265.46 53.12 263.27 54.38 260.71 55.27 C258.16 56.16 255.39 56.6 252.41 56.6 C249.48 56.6 246.77 56.16 244.28 55.27 C241.79 54.38 239.65 53.11 237.85 51.47 C236.05 49.82 234.63 47.86 233.61 45.57 C232.59 43.28 232.08 40.74 232.08 37.94 Z M280.08 21.13 L292.15 21.13 L292.15 25.47 C293.79 23.47 295.46 22.12 297.15 21.43 C298.84 20.75 300.81 20.4 303.08 20.4 C305.48 20.4 307.54 20.79 309.25 21.57 C310.96 22.35 312.42 23.45 313.62 24.87 C314.59 26.02 315.26 27.31 315.62 28.73 C315.97 30.16 316.15 31.78 316.15 33.6 L316.15 55.34 L304.08 55.34 L304.08 38.07 C304.08 36.38 303.96 35.01 303.72 33.97 C303.47 32.92 303.04 32.09 302.42 31.47 C301.88 30.93 301.28 30.56 300.61 30.33 C299.95 30.11 299.24 30 298.48 30 C296.44 30 294.87 30.61 293.78 31.83 C292.69 33.06 292.15 34.8 292.15 37.07 L292.15 55.34 L280.08 55.34 Z M334.08 38.47 L334.08 25.47 C334.62 25.56 335.11 25.63 335.55 25.7 C335.99 25.77 336.42 25.8 336.82 25.8 C338.02 25.8 339.15 25.63 340.22 25.3 C341.28 24.97 342.21 24.51 342.98 23.93 C343.76 23.36 344.37 22.66 344.82 21.83 C345.26 21.01 345.48 20.11 345.48 19.13 C345.48 17.8 345.04 16.65 344.15 15.67 C343.26 14.69 342.06 14.2 340.55 14.2 C339.17 14.2 338.07 14.67 337.25 15.6 C336.43 16.53 336.02 17.76 336.02 19.27 L322.75 19.27 C322.75 17 323.2 14.92 324.12 13.03 C325.03 11.14 326.29 9.5 327.92 8.1 C329.54 6.7 331.45 5.61 333.65 4.83 C335.85 4.06 338.24 3.67 340.82 3.67 C343.44 3.67 345.83 4.1 347.98 4.97 C350.14 5.83 352 7 353.55 8.47 C355.11 9.93 356.31 11.62 357.15 13.53 C358 15.45 358.42 17.42 358.42 19.47 C358.42 26.13 354.4 30.87 346.35 33.67 L346.35 38.47 Z M332.75 48.94 C332.75 47.87 332.95 46.86 333.35 45.9 C333.75 44.95 334.31 44.11 335.02 43.4 C335.73 42.69 336.56 42.14 337.52 41.74 C338.47 41.34 339.48 41.14 340.55 41.14 C341.62 41.14 342.63 41.34 343.58 41.74 C344.54 42.14 345.37 42.69 346.08 43.4 C346.8 44.11 347.35 44.95 347.75 45.9 C348.15 46.86 348.35 47.87 348.35 48.94 C348.35 50 348.15 51.01 347.75 51.97 C347.35 52.92 346.8 53.76 346.08 54.47 C345.37 55.18 344.54 55.74 343.58 56.14 C342.63 56.54 341.62 56.74 340.55 56.74 C339.48 56.74 338.47 56.54 337.52 56.14 C336.56 55.74 335.73 55.18 335.02 54.47 C334.31 53.76 333.75 52.92 333.35 51.97 C332.95 51.01 332.75 50 332.75 48.94 Z"/>
      </g>
      <g transform="matrix(0.747513 0 0 0.747513 -12.296111 66.829353)">
        <path fill="#ffffff" d="M5.27 55.34 L5.27 5.07 L18.33 5.07 L42.47 35.8 L42.47 5.07 L55.47 5.07 L55.47 55.34 L42.47 55.34 L18.33 24.6 L18.33 55.34 Z M89.87 33.27 C89.47 31.58 88.65 30.22 87.4 29.2 C86.16 28.18 84.65 27.67 82.87 27.67 C81 27.67 79.48 28.16 78.3 29.13 C77.13 30.11 76.38 31.49 76.07 33.27 Z M75.74 40.27 C75.74 45.47 78.18 48.07 83.07 48.07 C85.69 48.07 87.67 47 89 44.87 L100.67 44.87 C98.32 52.69 92.43 56.6 83 56.6 C80.12 56.6 77.47 56.17 75.07 55.3 C72.67 54.44 70.61 53.2 68.9 51.6 C67.19 50 65.87 48.09 64.94 45.87 C64 43.65 63.54 41.16 63.54 38.4 C63.54 35.56 63.98 32.99 64.87 30.7 C65.76 28.41 67.03 26.47 68.67 24.87 C70.31 23.27 72.3 22.03 74.64 21.17 C76.97 20.3 79.6 19.87 82.54 19.87 C85.43 19.87 88.03 20.3 90.34 21.17 C92.65 22.03 94.6 23.29 96.2 24.93 C97.8 26.58 99.03 28.59 99.87 30.97 C100.72 33.35 101.14 36.02 101.14 39 L101.14 40.27 Z M120.07 21.13 L120.07 55.34 L108.01 55.34 L108.01 21.13 Z M107.21 8 C107.21 7.07 107.38 6.19 107.74 5.37 C108.09 4.54 108.58 3.82 109.21 3.2 C109.83 2.58 110.55 2.09 111.37 1.73 C112.19 1.38 113.07 1.2 114.01 1.2 C114.94 1.2 115.82 1.38 116.64 1.73 C117.46 2.09 118.18 2.58 118.81 3.2 C119.43 3.82 119.92 4.54 120.27 5.37 C120.63 6.19 120.81 7.07 120.81 8 C120.81 8.93 120.63 9.81 120.27 10.63 C119.92 11.46 119.43 12.18 118.81 12.8 C118.18 13.42 117.46 13.91 116.64 14.27 C115.82 14.62 114.94 14.8 114.01 14.8 C113.07 14.8 112.19 14.62 111.37 14.27 C110.55 13.91 109.83 13.42 109.21 12.8 C108.58 12.18 108.09 11.46 107.74 10.63 C107.38 9.81 107.21 8.93 107.21 8 Z M128.34 21.13 L140.41 21.13 L140.41 25.47 C142.05 23.47 143.72 22.12 145.41 21.43 C147.1 20.75 149.07 20.4 151.34 20.4 C153.74 20.4 155.8 20.79 157.51 21.57 C159.22 22.35 160.67 23.45 161.87 24.87 C162.85 26.02 163.52 27.31 163.87 28.73 C164.23 30.16 164.41 31.78 164.41 33.6 L164.41 55.34 L152.34 55.34 L152.34 38.07 C152.34 36.38 152.22 35.01 151.97 33.97 C151.73 32.92 151.3 32.09 150.67 31.47 C150.14 30.93 149.54 30.56 148.87 30.33 C148.21 30.11 147.5 30 146.74 30 C144.7 30 143.13 30.61 142.04 31.83 C140.95 33.06 140.41 34.8 140.41 37.07 L140.41 55.34 L128.34 55.34 Z M206.48 38.14 C206.48 39.25 206.68 40.28 207.08 41.24 C207.48 42.19 208.02 43.02 208.71 43.74 C209.4 44.45 210.22 45 211.18 45.4 C212.13 45.8 213.17 46 214.28 46 C215.34 46 216.36 45.8 217.31 45.4 C218.27 45 219.09 44.45 219.78 43.74 C220.47 43.02 221.02 42.2 221.44 41.27 C221.87 40.34 222.08 39.34 222.08 38.27 C222.08 37.2 221.87 36.19 221.44 35.24 C221.02 34.28 220.47 33.45 219.78 32.73 C219.09 32.02 218.27 31.47 217.31 31.07 C216.36 30.67 215.34 30.47 214.28 30.47 C213.21 30.47 212.2 30.67 211.24 31.07 C210.29 31.47 209.47 32.02 208.78 32.73 C208.09 33.45 207.53 34.26 207.11 35.17 C206.69 36.08 206.48 37.07 206.48 38.14 Z M221.68 0 L233.81 0 L233.81 55.34 L221.68 55.34 L221.68 51.54 C219.1 54.78 215.61 56.4 211.21 56.4 C208.72 56.4 206.43 55.94 204.34 55 C202.25 54.07 200.43 52.78 198.88 51.14 C197.32 49.49 196.11 47.56 195.24 45.34 C194.38 43.11 193.94 40.71 193.94 38.14 C193.94 35.69 194.35 33.37 195.18 31.17 C196 28.97 197.17 27.05 198.68 25.4 C200.19 23.76 202 22.46 204.11 21.5 C206.22 20.55 208.54 20.07 211.08 20.07 C215.34 20.07 218.88 21.56 221.68 24.53 Z M253.21 38.14 C253.21 39.25 253.41 40.28 253.81 41.24 C254.21 42.19 254.76 43.02 255.45 43.74 C256.13 44.45 256.96 45 257.91 45.4 C258.87 45.8 259.9 46 261.01 46 C262.08 46 263.09 45.8 264.05 45.4 C265 45 265.82 44.45 266.51 43.74 C267.2 43.02 267.76 42.2 268.18 41.27 C268.6 40.34 268.81 39.34 268.81 38.27 C268.81 37.2 268.6 36.19 268.18 35.24 C267.76 34.28 267.2 33.45 266.51 32.73 C265.82 32.02 265 31.47 264.05 31.07 C263.09 30.67 262.08 30.47 261.01 30.47 C259.9 30.47 258.87 30.67 257.91 31.07 C256.96 31.47 256.13 32.02 255.45 32.73 C254.76 33.45 254.21 34.26 253.81 35.17 C253.41 36.08 253.21 37.07 253.21 38.14 Z M268.41 21.13 L280.55 21.13 L280.55 55.34 L268.41 55.34 L268.41 51.54 C265.84 54.78 262.35 56.4 257.95 56.4 C255.46 56.4 253.17 55.95 251.08 55.04 C248.99 54.12 247.17 52.85 245.61 51.2 C244.06 49.56 242.85 47.62 241.98 45.4 C241.11 43.18 240.68 40.76 240.68 38.14 C240.68 35.69 241.1 33.37 241.95 31.17 C242.79 28.97 243.97 27.05 245.48 25.4 C246.99 23.76 248.79 22.46 250.88 21.5 C252.97 20.55 255.28 20.07 257.81 20.07 C262.08 20.07 265.61 21.56 268.41 24.53 Z M288.75 21.13 L300.81 21.13 L300.81 25.47 C302.46 23.47 304.13 22.12 305.82 21.43 C307.5 20.75 309.48 20.4 311.75 20.4 C314.15 20.4 316.2 20.79 317.92 21.57 C319.63 22.35 321.08 23.45 322.28 24.87 C323.26 26.02 323.93 27.31 324.28 28.73 C324.64 30.16 324.82 31.78 324.82 33.6 L324.82 55.34 L312.75 55.34 L312.75 38.07 C312.75 36.38 312.63 35.01 312.38 33.97 C312.14 32.92 311.7 32.09 311.08 31.47 C310.55 30.93 309.95 30.56 309.28 30.33 C308.62 30.11 307.9 30 307.15 30 C305.1 30 303.54 30.61 302.45 31.83 C301.36 33.06 300.81 34.8 300.81 37.07 L300.81 55.34 L288.75 55.34 Z M345.08 0 L345.08 33.47 L357.75 21.13 L374.29 21.13 L357.15 36.94 L375.29 55.34 L358.35 55.34 L345.08 41.4 L345.08 55.34 L333.02 55.34 L333.02 0 Z M404.55 33.27 C404.15 31.58 403.33 30.22 402.09 29.2 C400.84 28.18 399.33 27.67 397.55 27.67 C395.69 27.67 394.16 28.16 392.99 29.13 C391.81 30.11 391.06 31.49 390.75 33.27 Z M390.42 40.27 C390.42 45.47 392.86 48.07 397.75 48.07 C400.38 48.07 402.35 47 403.69 44.87 L415.35 44.87 C413 52.69 407.11 56.6 397.69 56.6 C394.8 56.6 392.15 56.17 389.75 55.3 C387.35 54.44 385.3 53.2 383.59 51.6 C381.87 50 380.55 48.09 379.62 45.87 C378.69 43.65 378.22 41.16 378.22 38.4 C378.22 35.56 378.66 32.99 379.55 30.7 C380.44 28.41 381.71 26.47 383.35 24.87 C385 23.27 386.99 22.03 389.32 21.17 C391.65 20.3 394.29 19.87 397.22 19.87 C400.11 19.87 402.71 20.3 405.02 21.17 C407.33 22.03 409.29 23.29 410.89 24.93 C412.49 26.58 413.71 28.59 414.55 30.97 C415.4 33.35 415.82 36.02 415.82 39 L415.82 40.27 Z M425.09 38.27 L425.09 5.07 L437.62 5.07 L437.62 38.27 Z M423.55 48.94 C423.55 47.87 423.75 46.86 424.15 45.9 C424.55 44.95 425.11 44.11 425.82 43.4 C426.53 42.69 427.37 42.14 428.32 41.74 C429.28 41.34 430.29 41.14 431.35 41.14 C432.42 41.14 433.43 41.34 434.39 41.74 C435.34 42.14 436.18 42.69 436.89 43.4 C437.6 44.11 438.16 44.95 438.56 45.9 C438.96 46.86 439.16 47.87 439.16 48.94 C439.16 50 438.96 51.01 438.56 51.97 C438.16 52.92 437.6 53.76 436.89 54.47 C436.18 55.18 435.34 55.74 434.39 56.14 C433.43 56.54 432.42 56.74 431.35 56.74 C430.29 56.74 429.28 56.54 428.32 56.14 C427.37 55.74 426.53 55.18 425.82 54.47 C425.11 53.76 424.55 52.92 424.15 51.97 C423.75 51.01 423.55 50 423.55 48.94 Z"/>
      </g>
    </g>
  </g>
</svg>
